<?xml version="1.0" encoding="iso-8859-1"?>
<!-- Uploaded to: SVG Repo, www.svgrepo.com, Generator: SVG Repo Mixer Tools -->
<svg height="800px" width="800px" version="1.1" id="Layer_1" xmlns="http://www.w3.org/2000/svg" xmlns:xlink="http://www.w3.org/1999/xlink" 
	 viewBox="0 0 512 512" xml:space="preserve">
<g transform="translate(1 1)">
	<g>
		<path style="fill:#63D3FD;" d="M374.467,152.6H357.4v85.333h17.067c23.893,0,42.667-18.773,42.667-42.667
			S398.36,152.6,374.467,152.6"/>
		<polygon style="fill:#63D3FD;" points="176.493,340.333 154.307,408.6 203.8,408.6 203.8,340.333 		"/>
	</g>
	<polygon style="fill:#FFE100;" points="135.533,468.333 67.267,468.333 127,280.6 195.267,280.6 	"/>
	<path style="fill:#FFA800;" d="M335.213,41.667H321.56c-4.267,0-9.387,1.707-12.8,4.267l-78.507,57.173
		c-5.973,4.267-13.653,6.827-21.333,6.827h-90.453h-76.8c-18.773,0-34.133,15.36-34.133,34.133v102.4
		c0,18.773,15.36,34.133,34.133,34.133h76.8h88.747c7.68,0,14.507,2.56,20.48,6.827L308.76,344.6c3.413,2.56,8.533,4.267,12.8,4.267
		h13.653c11.947,0,22.187-10.24,22.187-22.187V63.853C357.4,51.907,347.16,41.667,335.213,41.667"/>
	<path style="fill:#FFE100;" d="M311.32,41.667h-1.707c-4.267,0-8.533,1.707-11.947,4.267L229.4,103.107
		c-5.973,4.267-28.16,6.827-34.987,6.827h-84.48H39.107c-17.067,0-31.573,15.36-31.573,34.133v102.4
		c0,18.773,14.507,34.133,31.573,34.133h70.827h82.773c6.827,0,22.187,2.56,28.16,6.827l76.8,57.173
		c3.413,2.56,7.68,4.267,11.947,4.267h1.707c11.093,0,20.48-10.24,20.48-22.187V63.853C331.8,51.907,322.413,41.667,311.32,41.667"
		/>
	<polygon style="fill:#3DB9F9;" points="50.2,237.933 135.533,237.933 135.533,152.6 50.2,152.6 	"/>
	<polygon style="fill:#63D3FD;" points="50.2,237.933 109.933,237.933 109.933,152.6 50.2,152.6 	"/>
	<path d="M335.213,357.4H321.56c-6.827,0-12.8-1.707-17.92-5.973l-81.067-57.173c-4.267-3.413-10.24-5.12-15.36-5.12H41.667
		C17.773,289.133-1,270.36-1,246.467v-102.4c0-23.893,18.773-42.667,42.667-42.667H208.92c5.973,0,11.093-1.707,16.213-5.12
		l78.507-57.173c5.12-4.267,11.947-5.973,17.92-5.973h13.653c17.067,0,30.72,13.653,30.72,30.72V326.68
		C365.933,343.747,352.28,357.4,335.213,357.4z M41.667,118.467c-14.507,0-25.6,11.093-25.6,25.6v102.4
		c0,14.507,11.093,25.6,25.6,25.6h165.547c9.387,0,17.92,2.56,25.6,8.533l81.067,57.173c2.56,1.707,5.12,2.56,7.68,2.56h13.653
		c7.68,0,13.653-5.973,13.653-13.653V63.853c0-7.68-5.973-13.653-13.653-13.653H321.56c-2.56,0-5.973,0.853-7.68,2.56
		l-78.507,57.173c-7.68,5.12-16.213,8.533-25.6,8.533H41.667z"/>
	<path d="M212.333,152.6c-5.12,0-8.533-3.413-8.533-8.533c0-5.12,3.413-8.533,8.533-8.533c11.947,0,21.333-3.413,33.28-11.947
		L319,70.68c3.413-2.56,9.387-1.707,11.947,1.707c1.707,4.267,0.853,9.387-2.56,11.947L255,137.24
		C240.493,148.333,227.693,152.6,212.333,152.6z"/>
	<path d="M374.467,246.467H357.4c-5.12,0-8.533-3.413-8.533-8.533V152.6c0-5.12,3.413-8.533,8.533-8.533h17.067
		c28.16,0,51.2,23.04,51.2,51.2S402.627,246.467,374.467,246.467z M365.933,229.4h8.533c18.773,0,34.133-15.36,34.133-34.133
		s-15.36-34.133-34.133-34.133h-8.533V229.4z"/>
	<path d="M135.533,476.867H67.267c-2.56,0-5.12-1.707-6.827-3.413c-1.707-2.56-1.707-5.12-1.707-7.68l59.733-187.733
		c0.853-3.413,4.267-5.973,8.533-5.973h68.267c2.56,0,5.12,1.707,6.827,3.413c1.707,2.56,1.707,5.12,1.707,7.68l-59.733,187.733
		C142.36,474.307,138.947,476.867,135.533,476.867z M79.213,459.8h50.347l54.613-170.667h-50.347L79.213,459.8z"/>
	<path d="M203.8,417.133h-49.493c-2.56,0-5.12-1.707-6.827-3.413c-1.707-2.56-1.707-5.12-0.853-7.68l21.333-68.267
		c0.853-3.413,4.267-5.973,8.533-5.973H203.8c5.12,0,8.533,3.413,8.533,8.533V408.6C212.333,413.72,208.92,417.133,203.8,417.133z
		 M166.253,400.067h29.013v-51.2h-12.8L166.253,400.067z"/>
	<path d="M135.533,246.467H50.2c-5.12,0-8.533-3.413-8.533-8.533V152.6c0-5.12,3.413-8.533,8.533-8.533h85.333
		c5.12,0,8.533,3.413,8.533,8.533v85.333C144.067,243.053,140.653,246.467,135.533,246.467z M58.733,229.4H127v-68.267H58.733V229.4
		z"/>
	<path d="M425.667,320.707c-3.413,0-6.827-1.707-7.68-5.12c-1.707-4.267,0-9.387,4.267-11.093
		c43.52-18.773,71.68-61.44,71.68-109.227s-28.16-90.453-71.68-109.227c-4.267-1.707-5.973-6.827-4.267-11.093
		c1.707-4.267,6.827-5.973,11.093-4.267C478.573,92.013,511,140.653,511,195.267s-32.427,103.253-81.92,125.44
		C428.227,320.707,426.52,320.707,425.667,320.707z"/>
	<path d="M425.667,272.067c-2.56,0-5.12-0.853-6.827-3.413c-2.56-3.413-1.707-9.387,1.707-11.947
		c19.627-14.507,30.72-36.693,30.72-61.44s-11.093-46.933-30.72-61.44c-3.413-2.56-4.267-8.533-1.707-11.947
		s8.533-4.267,11.947-1.707c23.893,17.92,37.547,46.08,37.547,75.093c0,29.867-13.653,57.173-37.547,75.093
		C429.08,271.213,427.373,272.067,425.667,272.067z"/>
</g>
</svg>