<svg width="831" height="220" viewBox="0 0 831 220" fill="none" xmlns="http://www.w3.org/2000/svg">
<path fill-rule="evenodd" clip-rule="evenodd" d="M82.9234 1.97929C31.1311 6.05811 1.2382 29.8859 1.27872 67.0555C1.30657 92.8072 16.172 111.432 47.2651 124.67C56.1322 128.444 63.9891 130.971 85.6656 137.018C107.446 143.092 118.053 147.117 119.4 149.818C123.314 157.664 101.096 160.496 73.4284 155.677C46.7385 151.03 18.1242 140.359 6.75292 130.811C5.04635 129.38 3.6031 129.244 2.34216 130.395L1.26605 131.378V162.637C1.26605 182.176 1.4205 194.158 1.67624 194.595C2.10668 195.328 9.31532 199.271 14.7693 201.758C49.3971 217.549 101.189 222.157 137.466 212.677C176.656 202.431 198.917 177.029 196.861 144.902C194.864 113.745 173.076 95.494 120.481 80.9291C88.2457 72.0014 82.331 70.043 80.2218 67.5943C72.1295 58.1973 106.005 58.0192 141.879 67.2706C149.282 69.1805 148.33 69.3585 183.044 59.5129C196.125 55.8017 201.561 54.2572 202.753 53.9126C208.509 52.2501 208.207 51.7553 192.689 37.373C186.166 31.3265 177.884 23.5897 174.286 20.1791C165.032 11.4064 164.28 11.0272 148.87 7.28824C128.804 2.42093 103.339 0.372266 82.9234 1.97929ZM115.417 7.33679C121.258 7.78768 136.564 10.0051 141.805 11.159C148.804 12.6989 156.711 14.8424 156.853 15.2378C156.932 15.4598 155.048 17.6379 152.665 20.082C150.283 22.526 146.363 26.554 143.953 29.035C140.942 32.1381 139.359 33.4884 138.889 33.3613C134.744 32.2329 115.984 32.2098 106.988 33.3243C77.3606 36.9915 62.6268 50.4836 71.2028 66.0913C75.1856 73.3379 80.0673 75.4444 115.417 85.1559C151.956 95.1911 169.05 103.716 180.53 117.625C196.231 136.643 194.157 168.034 176.023 185.94C170.673 191.222 159.995 198.725 156.884 199.391C152.156 200.401 150.581 195.881 154.174 191.605C169.336 173.554 168.807 144.347 153.01 127.47C144.449 118.323 128.578 109.627 108.454 103.053C106.945 102.56 102.767 101.184 99.1714 99.9983C95.5734 98.8098 90.2562 97.0779 87.3545 96.1507C50.8808 84.5015 40.9553 77.3589 35.7875 59.0389C26.9255 27.6176 64.2549 3.3782 115.417 7.33679ZM174.124 26.1193C186.637 37.958 186.787 38.2101 182.776 40.8183C180.193 42.497 179.218 44.689 179.548 48.0834C180.029 53.0594 180.006 54.5809 179.441 55.2006C178.623 56.1 154.531 63.2033 152.303 63.2033C150.159 63.201 149.475 61.2726 145.576 44.1526C143.745 36.1244 142.732 37.9604 156.967 23.5087C164.244 16.1211 163.426 15.9962 174.124 26.1193ZM34.0556 23.703C36.2838 25.1273 36.1901 26.6696 33.5948 31.2363C27.6673 41.6623 26.9888 52.3865 31.4628 64.8889C37.7929 82.5823 48.997 89.6602 92.8413 103.67C139.572 118.603 154.291 129.188 158.476 150.88C165.042 184.898 135.103 212.367 91.7855 212.069C73.8107 211.946 46.3663 207.918 36.1876 203.911L34.1822 203.12V192.916C34.1822 187.305 34.3341 182.627 34.5215 182.523C34.7089 182.416 36.8611 183.004 39.3045 183.825C76.2896 196.283 114.47 191.064 126.91 171.852C133.047 162.371 129.325 148.072 119.311 142.648C114.574 140.084 102.944 136.183 85.8783 131.436C57.6666 123.588 47.3461 119.629 33.9721 111.534C12.6323 98.6179 3.54739 78.6353 8.23162 54.9162C11.384 38.9431 27.4774 19.4947 34.0556 23.703ZM133.754 38.1916C140.028 38.7373 138.861 36.6401 142.623 54.1462C144.446 62.6275 144.532 62.3547 140.39 61.2934C126.758 57.8019 111.543 55.589 98.7485 55.2376C90.6208 55.0156 88.9952 55.1011 81.4017 56.144C77.0112 56.7451 75.5882 52.2224 79.1356 48.932C88.2559 40.4668 110.244 36.1429 133.754 38.1916ZM290.338 45.1122C254.039 48.0441 235.533 67.2867 243.104 94.2246C246.588 106.63 261.197 116.725 280.42 120.011C285.692 120.913 297.922 122.839 304.994 123.884C321.778 126.363 327.896 129.993 327.896 137.478C327.896 145.7 320.408 149.661 304.897 149.647C288.265 149.631 280.803 144.953 279.078 133.457L278.828 131.799H259.017H239.209L239.427 132.858C239.546 133.44 239.761 134.96 239.906 136.231C242.868 162.36 265.018 174.823 307.189 174.088C345.939 173.413 367.304 160.108 368.281 136.037C369.238 112.505 353.897 100.623 316.291 95.7738C288.201 92.1505 283.094 90.3238 281.451 83.3061C279.403 74.5634 287.006 69.3123 301.732 69.2984C317.806 69.2822 325.802 74.0455 326.913 84.3003L327.174 86.7097H345.891H364.61V85.0264C364.61 77.0237 359.84 66.1468 353.639 60.0031C341.938 48.4164 318.292 42.8554 290.338 45.1122ZM433.397 45.133C395.781 48.1782 371.71 74.3137 372.745 110.979C373.793 148.029 398.255 171.371 438.145 173.38C486.506 175.817 517.498 146.586 513.619 102.193C510.241 63.527 479.171 41.4311 433.397 45.133ZM753.274 44.9549C736.654 46.3862 726.812 49.0315 718.167 54.389C697.759 67.037 696.022 95.8755 714.83 109.816C723.91 116.545 732.174 118.945 760.66 123.123C782.506 126.328 788.056 129.255 788.056 137.579C788.056 145.89 780.908 149.686 765.301 149.668C749.162 149.647 742.315 145.76 739.829 135.202L739.072 131.991L719.375 131.891C703.758 131.813 699.681 131.891 699.681 132.277C699.691 134.331 701.213 141.251 702.454 144.902C709.409 165.343 727.776 173.988 764.245 173.988C807.525 173.988 830.077 159.366 828.685 132.208C827.624 111.52 812.032 100.34 778.168 95.9865C753.248 92.7794 746.974 91.2048 743.842 87.371C737.097 79.1163 743.86 70.4245 757.814 69.4117C775.34 68.14 785.648 73.1368 787.19 83.6552L787.638 86.7097H806.324H825.013V85.2183C825.013 74.2351 817.435 61.0182 807.557 54.7844C795.606 47.2395 773.403 43.2184 753.274 44.9549ZM525.393 108.484V171.877H542.484H559.575L559.529 140.951C559.506 123.942 559.352 104.91 559.192 98.6572C558.84 85.0634 558.894 84.8784 561.19 91.6302C565.586 104.54 568.622 113.352 569.715 116.383C570.366 118.184 571.979 122.781 573.303 126.596C574.625 130.411 576.529 135.873 577.534 138.736C582.307 152.332 587.176 166.325 588.457 170.143L588.974 171.685L603.568 171.787L618.166 171.889L620.128 166.198C621.209 163.07 622.632 159.035 623.293 157.234C623.956 155.432 625.668 150.577 627.101 146.442C628.534 142.31 630.524 136.587 631.524 133.725C632.522 130.865 634.419 125.401 635.735 121.586C637.052 117.77 638.675 113.176 639.338 111.375C640.002 109.571 641.809 104.368 643.354 99.8133C644.898 95.2558 646.59 90.3122 647.111 88.8301L648.061 86.1317L647.858 129.006L647.653 171.877H664.805H681.955V108.484V45.0891H656.072H630.188L628.597 49.8107C625.729 58.3267 623.24 65.6289 621.604 70.332C620.718 72.8755 618.917 78.1636 617.601 82.0852C616.284 86.0068 614.481 91.2949 613.593 93.8384C611.266 100.509 607.283 113.543 604.617 123.225C604.044 125.294 603.624 125.294 603.006 123.225C602.735 122.323 601.9 119.505 601.145 116.961C598.547 108.191 595.142 97.7392 591.225 86.5178C590.336 83.9743 588.437 78.4249 587.004 74.1842C585.571 69.9458 583.682 64.3964 582.803 61.8529C581.925 59.3094 580.282 54.4976 579.147 51.161L577.089 45.0914H551.239L525.393 45.0891V108.484ZM453.473 75.6733C469.569 80.4366 477.345 102.2 470.914 124.476C464.229 147.631 429.771 151.483 418.066 130.386C411.703 118.922 412.227 96.4836 419.096 86.1108C425.766 76.0433 440.061 71.7032 453.473 75.6733ZM42.6948 153.733C71.851 162.82 99.5132 165.847 114.774 161.615C122.38 159.507 125.504 161.86 122.615 167.525C113.209 185.975 74.269 190.828 38.9221 177.958L34.3924 176.31L34.281 163.881C34.1873 153.277 34.2607 151.453 34.7772 151.453C35.1115 151.453 38.674 152.48 42.6948 153.733Z" fill="#54B4AC"/>
<path fill-rule="evenodd" clip-rule="evenodd" d="M96.3228 1.44289C98.1206 1.51457 101.065 1.51457 102.863 1.44289C104.661 1.37121 103.19 1.3111 99.5917 1.3111C95.9937 1.3111 94.5226 1.37121 96.3228 1.44289ZM94.634 7.20273C95.0391 7.29985 95.705 7.29985 96.1101 7.20273C96.5178 7.10562 96.1836 7.027 95.3733 7.027C94.5606 7.027 94.2289 7.10562 94.634 7.20273ZM108.983 7.21198C109.621 7.30216 110.664 7.30216 111.302 7.21198C111.94 7.12411 111.419 7.05243 110.143 7.05243C108.866 7.05243 108.345 7.12411 108.983 7.21198ZM115.1 7.5935C115.624 7.68599 116.478 7.68599 116.999 7.5935C117.523 7.50333 117.095 7.42702 116.05 7.42702C115.007 7.42702 114.579 7.50333 115.1 7.5935ZM119.326 7.97965C119.85 8.07214 120.61 8.06983 121.015 7.97271C121.418 7.8756 120.987 7.80161 120.06 7.80392C119.131 7.80854 118.802 7.88716 119.326 7.97965ZM71.1065 11.7671C70.0532 12.2319 70.0178 12.2851 70.8964 12.0885C72.0915 11.8226 73.436 11.196 72.7954 11.2053C72.5624 11.2076 71.8028 11.4619 71.1065 11.7671ZM171.967 17.7281C172.873 18.5744 173.709 19.2681 173.825 19.2681C173.942 19.2681 173.293 18.5744 172.387 17.7281C171.481 16.8795 170.645 16.1859 170.529 16.1859C170.412 16.1859 171.06 16.8795 171.967 17.7281ZM168.379 21.0023C169.875 22.3804 171.192 23.5088 171.308 23.5088C171.425 23.5088 170.296 22.3804 168.802 21.0023C167.305 19.6265 165.986 18.4981 165.872 18.4981C165.756 18.4981 166.882 19.6265 168.379 21.0023ZM177.451 23.1226C178.596 24.1817 179.626 25.0487 179.74 25.0487C179.856 25.0487 179.016 24.1817 177.874 23.1226C176.732 22.0636 175.701 21.1965 175.585 21.1965C175.468 21.1965 176.309 22.0636 177.451 23.1226ZM45.5763 25.6268C44.5508 26.5818 43.8064 27.361 43.9228 27.361C44.0393 27.361 44.9736 26.5818 45.9991 25.6268C47.0246 24.6742 47.7664 23.8926 47.65 23.8926C47.536 23.8926 46.6017 24.6742 45.5763 25.6268ZM17.3013 26.3991C16.2758 27.3518 15.5339 28.1333 15.6504 28.1333C15.7643 28.1333 16.6986 27.3518 17.7241 26.3991C18.7496 25.4441 19.494 24.6649 19.3775 24.6649C19.261 24.6649 18.3267 25.4441 17.3013 26.3991ZM154.215 26.302L152.977 27.5552L154.346 26.4222C155.101 25.8002 155.719 25.236 155.719 25.169C155.719 24.873 155.369 25.1343 154.215 26.302ZM188.845 33.9139C193.251 37.9396 196.95 41.2346 197.067 41.2346C197.183 41.2346 193.674 37.9396 189.268 33.9139C184.862 29.886 181.163 26.591 181.046 26.591C180.93 26.591 184.439 29.886 188.845 33.9139ZM144.302 28.4223L142.849 29.8675L144.431 28.5379C145.902 27.3032 146.206 26.9772 145.884 26.9772C145.814 26.9772 145.102 27.6269 144.302 28.4223ZM22.3425 29.1923L20.8891 30.6375L22.4716 29.3102C23.3426 28.5796 24.0541 27.9275 24.0541 27.8651C24.0541 27.5691 23.6971 27.8466 22.3425 29.1923ZM179.14 31.2155C180.986 32.9104 182.591 34.2978 182.707 34.2978C182.824 34.2978 181.409 32.9104 179.563 31.2155C177.717 29.5207 176.112 28.1333 175.995 28.1333C175.879 28.1333 177.294 29.5207 179.14 31.2155ZM149.996 30.5404L148.756 31.7936L150.128 30.6606C150.883 30.0386 151.498 29.4767 151.498 29.4097C151.498 29.1114 151.151 29.3727 149.996 30.5404ZM140.428 32.189C139.559 32.9266 139 33.5278 139.185 33.5278C139.367 33.5278 140.162 32.922 140.95 32.1798C142.785 30.4479 142.471 30.4548 140.428 32.189ZM119.954 32.2699C121.288 32.3485 123.474 32.3485 124.808 32.2699C126.142 32.1936 125.051 32.1312 122.38 32.1312C119.711 32.1312 118.62 32.1936 119.954 32.2699ZM112.358 32.6468C112.996 32.737 114.042 32.737 114.68 32.6468C115.318 32.559 114.794 32.4873 113.518 32.4873C112.242 32.4873 111.72 32.559 112.358 32.6468ZM130.505 32.6468C131.143 32.737 132.186 32.737 132.824 32.6468C133.462 32.559 132.941 32.4873 131.665 32.4873C130.389 32.4873 129.867 32.559 130.505 32.6468ZM108.56 33.0237C108.965 33.1185 109.631 33.1185 110.036 33.0237C110.444 32.9266 110.11 32.8457 109.299 32.8457C108.487 32.8457 108.155 32.9266 108.56 33.0237ZM135.569 33.0237C135.974 33.1185 136.64 33.1185 137.045 33.0237C137.45 32.9266 137.119 32.8457 136.306 32.8457C135.496 32.8457 135.161 32.9266 135.569 33.0237ZM114.467 38.0321C114.875 38.1292 115.538 38.1292 115.946 38.0321C116.351 37.935 116.019 37.8563 115.207 37.8563C114.394 37.8563 114.062 37.935 114.467 38.0321ZM128.611 38.039C129.135 38.1315 129.895 38.1292 130.297 38.0321C130.702 37.935 130.272 37.861 129.343 37.8633C128.416 37.8679 128.084 37.9465 128.611 38.039ZM197.497 41.7409C197.497 41.808 198.115 42.3722 198.869 42.9942L200.239 44.1249L199.001 42.874C197.846 41.7063 197.497 41.4427 197.497 41.7409ZM74.4665 45.1862L72.3725 47.2094L74.5881 45.2972C75.8085 44.2451 76.8036 43.3341 76.8036 43.274C76.8036 42.9849 76.4136 43.3063 74.4665 45.1862ZM85.9821 44.1526C84.4047 44.9342 84.5009 45.2602 86.0884 44.511C86.7847 44.1827 87.3544 43.8312 87.3544 43.7295C87.3544 43.4821 87.3089 43.496 85.9821 44.1526ZM292.346 44.9758C292.873 45.0683 293.632 45.066 294.035 44.9689C294.438 44.8717 294.01 44.7978 293.08 44.8001C292.151 44.8047 291.822 44.8833 292.346 44.9758ZM310.493 44.9758C311.017 45.0683 311.777 45.066 312.182 44.9689C312.585 44.8717 312.154 44.7978 311.227 44.8001C310.298 44.8047 309.969 44.8833 310.493 44.9758ZM435.19 44.9689C435.595 45.066 436.261 45.066 436.666 44.9689C437.073 44.8717 436.739 44.7931 435.929 44.7931C435.116 44.7931 434.785 44.8717 435.19 44.9689ZM450.382 44.9689C450.787 45.066 451.453 45.066 451.858 44.9689C452.266 44.8717 451.931 44.7931 451.121 44.7931C450.308 44.7931 449.977 44.8717 450.382 44.9689ZM752.534 44.9689C752.942 45.066 753.605 45.066 754.013 44.9689C754.418 44.8717 754.086 44.7931 753.274 44.7931C752.461 44.7931 752.129 44.8717 752.534 44.9689ZM770.896 44.9758C771.423 45.0683 772.183 45.066 772.585 44.9689C772.988 44.8717 772.56 44.7978 771.631 44.8001C770.702 44.8047 770.372 44.8833 770.896 44.9758ZM179.044 47.4014C179.044 48.354 179.127 48.7448 179.226 48.2685C179.327 47.7921 179.327 47.0106 179.226 46.5343C179.127 46.0579 179.044 46.4464 179.044 47.4014ZM34.3215 49.5217C34.3215 51.0039 34.4 51.5634 34.4911 50.7657C34.5823 49.9657 34.5797 48.7517 34.486 48.0673C34.3923 47.3829 34.3189 48.0372 34.3215 49.5217ZM205.888 50.953C206.081 52.0236 206.141 52.0791 206.273 51.3068C206.359 50.805 206.258 50.2362 206.045 50.042C205.81 49.8292 205.749 50.1876 205.888 50.953ZM475.631 50.2454C476.064 50.6015 479.393 52.0213 479.393 51.8478C479.393 51.6305 476.211 50.0998 475.755 50.0998C475.59 50.0998 475.535 50.1645 475.631 50.2454ZM408.393 51.0894C406.755 51.901 406.943 52.1808 408.603 51.4085C410.194 50.6709 410.475 50.479 409.94 50.4998C409.728 50.509 409.031 50.7749 408.393 51.0894ZM257.209 54.5647L255.943 55.559L257.316 54.7289C258.07 54.2734 258.688 53.8248 258.688 53.7346C258.688 53.4456 258.508 53.545 257.209 54.5647ZM92.5425 55.0087C94.1175 55.085 96.5862 55.0827 98.0269 55.0087C99.4676 54.9324 98.1788 54.8723 95.1606 54.8723C92.145 54.8746 90.9651 54.9347 92.5425 55.0087ZM103.711 55.381C104.238 55.4735 104.998 55.4711 105.4 55.374C105.803 55.2769 105.375 55.2029 104.446 55.2052C103.516 55.2099 103.187 55.2885 103.711 55.381ZM196.864 55.4943C196.332 55.7024 196.254 55.8249 196.654 55.8249C197.001 55.8249 197.667 55.6769 198.13 55.4943C198.662 55.2862 198.74 55.1636 198.34 55.1636C197.993 55.1636 197.327 55.3116 196.864 55.4943ZM68.4783 57.4204C68.4783 58.3753 68.5619 58.7661 68.6631 58.2875C68.7619 57.8111 68.7619 57.0319 68.6631 56.5533C68.5619 56.077 68.4783 56.4677 68.4783 57.4204ZM80.2851 56.1463C80.6927 56.2411 81.3561 56.2411 81.7638 56.1463C82.1689 56.0492 81.8372 55.9683 81.0244 55.9683C80.2116 55.9683 79.88 56.0492 80.2851 56.1463ZM352.583 58.9627C353.96 60.2344 355.183 61.2749 355.3 61.2749C355.416 61.2749 354.383 60.2344 353.006 58.9627C351.626 57.6909 350.405 56.6504 350.289 56.6504C350.172 56.6504 351.205 57.6909 352.583 58.9627ZM711.918 58.7707C710.893 59.7234 710.148 60.5049 710.265 60.5049C710.381 60.5049 711.313 59.7234 712.339 58.7707C713.364 57.8158 714.108 57.0365 713.992 57.0365C713.876 57.0365 712.944 57.8158 711.918 58.7707ZM812.758 58.6736C813.794 59.6795 814.695 60.5049 814.764 60.5049C815.08 60.5049 814.746 60.1581 812.882 58.5603L810.877 56.8423L812.758 58.6736ZM1.37997 59.7326C1.37997 60.6876 1.46353 61.0784 1.56481 60.5997C1.66356 60.1234 1.66356 59.3442 1.56481 58.8655C1.46353 58.3892 1.37997 58.78 1.37997 59.7326ZM184.627 58.9627C184.095 59.1708 184.017 59.2933 184.414 59.2933C184.763 59.2933 185.427 59.1453 185.893 58.9627C186.424 58.7545 186.503 58.632 186.103 58.632C185.754 58.632 185.09 58.78 184.627 58.9627ZM7.27197 62.0449C7.27197 62.7871 7.35806 63.09 7.46441 62.7201C7.57075 62.3501 7.57075 61.742 7.46441 61.372C7.35806 60.9998 7.27197 61.3027 7.27197 62.0449ZM149.812 61.6148C149.812 61.9894 151.452 63.3929 151.627 63.1663C151.695 63.0808 151.316 62.6253 150.781 62.1559C150.247 61.6865 149.812 61.4437 149.812 61.6148ZM1.00524 66.8636C1.00524 69.4071 1.0736 70.3968 1.15716 69.0626C1.24072 67.7307 1.23819 65.6497 1.15463 64.4381C1.07107 63.2288 1.00524 64.3202 1.00524 66.8636ZM389.064 64.6462L387.608 66.0913L389.191 64.7641C390.664 63.5271 390.968 63.201 390.646 63.201C390.576 63.201 389.864 63.8531 389.064 64.6462ZM90.7296 72.3853C91.079 72.5819 91.8386 72.8593 92.4185 73.0004C93.1528 73.1807 93.2794 73.1484 92.8413 72.9009C92.4919 72.7044 91.7323 72.4293 91.1525 72.2859C90.4182 72.1078 90.2916 72.1379 90.7296 72.3853ZM1.37238 73.8004C1.37744 74.6467 1.46353 74.9496 1.56481 74.4687C1.66609 73.99 1.66103 73.2963 1.55722 72.9287C1.45088 72.5587 1.36731 72.9518 1.37238 73.8004ZM506.402 77.0746C506.876 77.9232 507.36 78.6169 507.474 78.6169C507.59 78.6169 507.299 77.9232 506.825 77.0746C506.352 76.2283 505.868 75.5346 505.752 75.5346C505.635 75.5346 505.929 76.2283 506.402 77.0746ZM104.235 76.4965C105.046 76.7832 105.995 77.0168 106.345 77.0168C106.691 77.0168 106.312 76.7832 105.501 76.4965C104.689 76.2121 103.739 75.9786 103.39 75.9786C103.043 75.9786 103.423 76.2121 104.235 76.4965ZM785.217 78.4203C785.602 79.1579 785.995 79.6944 786.086 79.6111C786.278 79.4354 784.997 77.0746 784.709 77.0746C784.602 77.0746 784.83 77.6804 785.217 78.4203ZM701.897 79.1949C701.902 80.0435 701.988 80.3441 702.089 79.8655C702.188 79.3845 702.185 78.6908 702.079 78.3232C701.973 77.9556 701.892 78.3463 701.897 79.1949ZM241.511 80.1591C241.511 81.3245 241.592 81.8008 241.688 81.2181C241.784 80.6355 241.784 79.6805 241.688 79.0978C241.592 78.5151 241.511 78.9938 241.511 80.1591ZM41.5681 80.9291C42.9455 82.2009 44.1685 83.2414 44.2849 83.2414C44.3989 83.2414 43.3683 82.2009 41.9884 80.9291C40.611 79.6574 39.388 78.6169 39.2715 78.6169C39.1576 78.6169 40.1881 79.6574 41.5681 80.9291ZM741.583 80.9291C741.583 82.0945 741.664 82.5708 741.761 81.9881C741.857 81.4054 741.857 80.4528 741.761 79.8701C741.664 79.2874 741.583 79.7637 741.583 80.9291ZM281.167 80.9291C281.167 81.8841 281.251 82.2725 281.352 81.7962C281.451 81.3199 281.451 80.5383 281.352 80.062C281.251 79.5857 281.167 79.9742 281.167 80.9291ZM423.269 81.121C422.243 82.076 421.499 82.8552 421.616 82.8552C421.732 82.8552 422.664 82.076 423.689 81.121C424.715 80.1684 425.459 79.3868 425.343 79.3868C425.226 79.3868 424.294 80.1684 423.269 81.121ZM461.669 79.8932C461.669 79.9603 462.287 80.5245 463.042 81.1465L464.414 82.2772L463.173 81.0262C462.019 79.8585 461.669 79.5949 461.669 79.8932ZM281.897 85.0611C281.897 85.2854 282.289 85.8773 282.768 86.3791L283.636 87.2878L282.894 86.1317C281.919 84.6102 281.897 84.5871 281.897 85.0611ZM241.506 86.9017C241.508 87.963 241.592 88.3492 241.688 87.7642C241.784 87.1792 241.782 86.3121 241.683 85.838C241.582 85.364 241.503 85.8427 241.506 86.9017ZM510.259 85.5536C510.259 85.8704 510.423 86.4785 510.623 86.9017C510.851 87.3873 510.985 87.4589 510.985 87.0959C510.985 86.7768 510.821 86.171 510.623 85.7456C510.393 85.26 510.259 85.1883 510.259 85.5536ZM558.995 86.9179C558.848 87.2624 558.747 87.8335 558.767 88.1873C558.787 88.5411 558.97 88.3168 559.175 87.6925C559.572 86.4762 559.433 85.875 558.995 86.9179ZM701.904 87.8659C701.904 88.8209 701.988 89.2093 702.087 88.733C702.188 88.2567 702.188 87.4751 702.087 86.9988C701.988 86.5225 701.904 86.9109 701.904 87.8659ZM126.178 88.444C126.991 88.7307 127.94 88.9642 128.289 88.9642C128.636 88.9642 128.257 88.7307 127.444 88.444C126.634 88.1572 125.684 87.9237 125.335 87.9237C124.985 87.9237 125.368 88.1572 126.178 88.444ZM150.655 90.9481C151.468 91.3551 152.321 91.6881 152.554 91.6881C152.787 91.6881 152.311 91.3551 151.498 90.9481C150.688 90.5435 149.832 90.2105 149.599 90.2105C149.368 90.2105 149.842 90.5435 150.655 90.9481ZM559.327 100.391C559.327 104.207 559.39 105.714 559.468 103.744C559.544 101.772 559.544 98.6503 559.466 96.8074C559.39 94.9622 559.327 96.5762 559.327 100.391ZM148.123 95.9588C148.936 96.3658 149.789 96.6964 150.022 96.6964C150.255 96.6964 149.779 96.3658 148.966 95.9588C148.156 95.5518 147.3 95.2212 147.067 95.2212C146.836 95.2212 147.31 95.5518 148.123 95.9588ZM647.929 99.8133C647.929 102.038 648 102.949 648.084 101.837C648.17 100.722 648.17 98.9023 648.084 97.7901C648 96.6756 647.929 97.5866 647.929 99.8133ZM154.876 98.8283C154.876 98.9347 155.445 99.2908 156.142 99.6191C156.838 99.9498 157.408 100.13 157.408 100.026C157.408 99.9197 156.838 99.5636 156.142 99.2353C155.445 98.9046 154.876 98.7243 154.876 98.8283ZM513.692 102.896C513.692 103.851 513.773 104.239 513.874 103.763C513.976 103.286 513.976 102.505 513.874 102.028C513.773 101.552 513.692 101.941 513.692 102.896ZM805.18 102.318C805.76 102.62 806.426 102.868 806.656 102.868C806.889 102.868 806.605 102.62 806.023 102.318C805.443 102.015 804.78 101.767 804.547 101.767C804.314 101.767 804.6 102.015 805.18 102.318ZM413.7 105.786C413.703 107.27 413.779 107.83 413.87 107.03C413.961 106.23 413.959 105.016 413.868 104.331C413.774 103.647 413.698 104.301 413.7 105.786ZM176.608 105.978C177.514 106.826 178.35 107.52 178.466 107.52C178.583 107.52 177.937 106.826 177.031 105.978C176.124 105.132 175.286 104.438 175.17 104.438C175.056 104.438 175.701 105.132 176.608 105.978ZM18.9901 107.712C20.4865 109.09 21.8032 110.218 21.9197 110.218C22.0361 110.218 20.9069 109.09 19.413 107.712C17.9165 106.334 16.5974 105.208 16.4834 105.208C16.367 105.208 17.4937 106.334 18.9901 107.712ZM709.807 105.714C709.807 105.781 710.424 106.343 711.179 106.965L712.551 108.098L711.311 106.845C710.156 105.677 709.807 105.416 709.807 105.714ZM251.302 107.52C252.209 108.369 253.044 109.062 253.161 109.062C253.277 109.062 252.632 108.369 251.725 107.52C250.819 106.671 249.981 105.978 249.864 105.978C249.75 105.978 250.396 106.671 251.302 107.52ZM372.35 109.254C372.353 110.949 372.426 111.597 372.515 110.69C372.603 109.784 372.603 108.396 372.512 107.606C372.421 106.817 372.35 107.559 372.35 109.254ZM472.785 109.062C472.785 110.651 472.858 111.301 472.95 110.508C473.041 109.712 473.041 108.41 472.95 107.617C472.858 106.822 472.785 107.472 472.785 109.062ZM357.224 109.446C358.13 110.295 358.968 110.988 359.085 110.988C359.199 110.988 358.553 110.295 357.647 109.446C356.74 108.6 355.905 107.906 355.788 107.906C355.672 107.906 356.317 108.6 357.224 109.446ZM818.683 110.41C819.944 111.576 821.071 112.531 821.187 112.531C821.304 112.531 820.367 111.576 819.106 110.41C817.845 109.245 816.718 108.29 816.602 108.29C816.488 108.29 817.422 109.245 818.683 110.41ZM173.02 110.41C173.807 111.153 174.547 111.758 174.663 111.758C174.78 111.758 174.23 111.153 173.443 110.41C172.655 109.668 171.916 109.062 171.8 109.062C171.683 109.062 172.233 109.668 173.02 110.41ZM180.616 109.566C180.616 109.633 181.234 110.198 181.988 110.82L183.361 111.953L182.12 110.699C180.965 109.532 180.616 109.27 180.616 109.566ZM413.698 112.531C413.698 113.907 413.774 114.471 413.868 113.782C413.961 113.093 413.961 111.967 413.868 111.278C413.774 110.588 413.698 111.153 413.698 112.531ZM175.975 113.035C175.975 113.102 176.593 113.666 177.347 114.288L178.717 115.421L177.479 114.168C176.324 113 175.975 112.739 175.975 113.035ZM121.537 114.071C122.349 114.478 123.203 114.811 123.436 114.811C123.669 114.811 123.193 114.478 122.38 114.071C121.57 113.666 120.714 113.333 120.481 113.333C120.25 113.333 120.724 113.666 121.537 114.071ZM513.682 115.421C513.687 116.267 513.773 116.57 513.874 116.089C513.976 115.611 513.973 114.917 513.867 114.549C513.76 114.179 513.679 114.572 513.682 115.421ZM42.2011 116.17C42.2011 116.277 42.7708 116.633 43.4671 116.961C44.1634 117.292 44.7331 117.472 44.7331 117.368C44.7331 117.262 44.1634 116.906 43.4671 116.577C42.7708 116.247 42.2011 116.066 42.2011 116.17ZM414.083 117.539C414.083 118.281 414.169 118.584 414.275 118.214C414.382 117.844 414.382 117.236 414.275 116.866C414.169 116.494 414.083 116.797 414.083 117.539ZM730.063 117.474C730.412 117.671 731.172 117.948 731.752 118.089C732.486 118.27 732.612 118.237 732.174 117.99C731.825 117.793 731.065 117.518 730.486 117.375C729.751 117.197 729.625 117.227 730.063 117.474ZM135.463 120.762C135.463 120.869 136.032 121.327 136.729 121.78C137.425 122.231 137.995 122.515 137.995 122.409C137.995 122.305 137.425 121.847 136.729 121.394C136.032 120.94 135.463 120.656 135.463 120.762ZM826.76 122.164C826.76 122.483 826.925 123.089 827.125 123.514C827.353 124 827.487 124.071 827.487 123.706C827.487 123.387 827.322 122.781 827.125 122.358C826.894 121.872 826.76 121.801 826.76 122.164ZM150.232 124.67C151.019 125.41 151.759 126.018 151.875 126.018C151.992 126.018 151.442 125.41 150.655 124.67C149.867 123.928 149.128 123.32 149.011 123.32C148.895 123.32 149.444 123.928 150.232 124.67ZM141.793 124.982C141.793 125.049 142.411 125.614 143.165 126.236L144.535 127.366L143.297 126.115C142.142 124.948 141.793 124.684 141.793 124.982ZM1.50151 130.728C0.916613 131.489 0.855852 135.075 0.944472 162.811L1.04575 194.038L1.26097 162.591C1.43821 136.722 1.58001 131.033 2.05602 130.509C2.37506 130.159 2.52697 129.873 2.39784 129.873C2.26618 129.873 1.86105 130.257 1.50151 130.728ZM249.115 131.702C254.645 131.764 263.57 131.764 268.95 131.702C274.331 131.642 269.806 131.591 258.898 131.591C247.99 131.591 243.587 131.642 249.115 131.702ZM706.431 131.692C724.221 131.961 739.249 131.965 739.072 131.702C738.963 131.544 730.01 131.452 719.173 131.501C708.336 131.547 702.6 131.635 706.431 131.692ZM368.507 134.497C368.507 135.237 368.593 135.542 368.699 135.17C368.805 134.8 368.805 134.192 368.699 133.822C368.593 133.452 368.507 133.755 368.507 134.497ZM559.676 152.702L559.575 171.87L542.377 171.974L525.182 172.081L542.392 172.171C555.845 172.243 559.646 172.159 559.803 171.782C559.914 171.516 559.955 162.802 559.891 152.417L559.777 133.533L559.676 152.702ZM93.6845 139.441C94.0314 139.637 94.7935 139.915 95.3733 140.056C96.1051 140.236 96.2342 140.204 95.7936 139.956C95.4468 139.76 94.6872 139.485 94.1073 139.341C93.373 139.163 93.2439 139.193 93.6845 139.441ZM161.694 140.856C161.692 141.066 161.948 141.848 162.259 142.59C162.573 143.33 162.834 143.677 162.841 143.36C162.849 143.041 162.593 142.262 162.274 141.626C161.955 140.99 161.694 140.643 161.694 140.856ZM196.75 143.746C196.75 144.486 196.839 144.791 196.945 144.419C197.049 144.049 197.049 143.441 196.945 143.071C196.839 142.701 196.75 143.004 196.75 143.746ZM324.287 144.997L322.621 146.637L324.414 145.113C326.083 143.695 326.402 143.36 326.083 143.36C326.014 143.36 325.207 144.098 324.287 144.997ZM784.901 144.805L783.448 146.25L785.03 144.923C786.501 143.686 786.805 143.36 786.484 143.36C786.413 143.36 785.701 144.01 784.901 144.805ZM442.16 144.024C442.92 144.112 444.059 144.109 444.692 144.021C445.325 143.934 444.705 143.862 443.312 143.864C441.92 143.867 441.401 143.938 442.16 144.024ZM190.904 148.563C190.904 150.893 190.975 151.798 191.058 150.572C191.142 149.344 191.142 147.437 191.056 146.334C190.969 145.228 190.901 146.232 190.904 148.563ZM297.618 149.407C298.023 149.504 298.689 149.504 299.094 149.407C299.499 149.31 299.167 149.231 298.355 149.231C297.542 149.231 297.21 149.31 297.618 149.407ZM758.021 149.407C758.426 149.504 759.092 149.504 759.497 149.407C759.905 149.31 759.571 149.231 758.761 149.231C757.948 149.231 757.616 149.31 758.021 149.407ZM771.104 149.407C771.509 149.504 772.175 149.504 772.58 149.407C772.985 149.31 772.654 149.231 771.841 149.231C771.028 149.231 770.696 149.31 771.104 149.407ZM303.102 149.809C304.206 149.89 306.009 149.89 307.113 149.809C308.214 149.73 307.313 149.666 305.108 149.666C302.902 149.666 302.001 149.73 303.102 149.809ZM763.508 149.809C764.609 149.89 766.415 149.89 767.516 149.809C768.618 149.73 767.716 149.666 765.511 149.666C763.306 149.666 762.404 149.73 763.508 149.809ZM34.2733 163.666C34.2227 170.49 34.324 176.153 34.4987 176.25C34.6734 176.349 34.7671 172.76 34.7063 168.277C34.5038 152.787 34.3645 151.305 34.2733 163.666ZM196.76 153.187C196.765 154.036 196.851 154.336 196.953 153.858C197.051 153.377 197.049 152.683 196.942 152.315C196.836 151.948 196.755 152.339 196.76 153.187ZM390.353 155.042C390.353 155.109 390.968 155.673 391.723 156.295L393.095 157.426L391.854 156.175C390.7 155.007 390.353 154.743 390.353 155.042ZM165.123 157.042C165.128 158.101 165.209 158.489 165.305 157.902C165.404 157.317 165.401 156.45 165.3 155.976C165.199 155.502 165.12 155.98 165.123 157.042ZM81.9739 157.113C82.379 157.211 83.045 157.211 83.4501 157.113C83.8577 157.016 83.5235 156.938 82.7133 156.938C81.9005 156.938 81.5688 157.016 81.9739 157.113ZM85.5668 157.507C86.091 157.599 86.8506 157.594 87.2532 157.5C87.6583 157.402 87.2278 157.326 86.2986 157.331C85.3719 157.335 85.0402 157.414 85.5668 157.507ZM107.294 157.5C107.699 157.597 108.365 157.597 108.77 157.5C109.178 157.402 108.844 157.324 108.033 157.324C107.221 157.324 106.889 157.402 107.294 157.5ZM90.6334 157.897C91.3905 157.985 92.5299 157.983 93.1654 157.895C93.7984 157.807 93.1781 157.735 91.7855 157.738C90.3929 157.74 89.8738 157.812 90.6334 157.897ZM102.23 157.895C102.868 157.983 103.914 157.983 104.552 157.895C105.19 157.807 104.666 157.735 103.39 157.735C102.114 157.735 101.592 157.807 102.23 157.895ZM159.238 160.51C159.241 162.205 159.314 162.85 159.405 161.944C159.494 161.037 159.491 159.65 159.4 158.861C159.312 158.073 159.238 158.813 159.238 160.51ZM711.901 160.413C713.648 162.115 714.027 162.42 714.027 162.131C714.027 162.069 713.126 161.245 712.022 160.3L710.019 158.582L711.901 160.413ZM130.102 161.088C130.102 162.254 130.183 162.73 130.28 162.147C130.376 161.565 130.376 160.61 130.28 160.027C130.183 159.444 130.102 159.921 130.102 161.088ZM165.123 163.206C165.128 164.268 165.209 164.654 165.305 164.069C165.404 163.484 165.401 162.617 165.3 162.143C165.199 161.669 165.12 162.147 165.123 163.206ZM194.362 165.932C194.208 166.497 194.162 167.033 194.261 167.123C194.36 167.216 194.567 166.827 194.724 166.263C194.879 165.699 194.924 165.162 194.826 165.07C194.727 164.98 194.517 165.368 194.362 165.932ZM618.234 171.438C618.234 171.787 614.686 171.873 603.503 171.792C595.403 171.734 588.86 171.815 588.969 171.974C589.078 172.134 595.694 172.263 603.675 172.263C617.383 172.263 619.477 172.115 618.487 171.209C618.348 171.082 618.234 171.186 618.234 171.438ZM656.346 172.166C661.179 172.229 668.965 172.229 673.65 172.166C678.334 172.104 674.381 172.053 664.863 172.053C655.348 172.053 651.515 172.104 656.346 172.166ZM438.777 173.699C439.532 173.785 440.765 173.785 441.52 173.699C442.274 173.614 441.656 173.542 440.147 173.542C438.638 173.542 438.023 173.614 438.777 173.699ZM445.535 173.699C446.295 173.785 447.434 173.783 448.067 173.695C448.703 173.607 448.083 173.537 446.69 173.54C445.297 173.542 444.778 173.614 445.535 173.699ZM301.851 174.476C303.196 174.552 305.285 174.552 306.495 174.474C307.705 174.395 306.606 174.333 304.052 174.335C301.499 174.335 300.509 174.4 301.851 174.476ZM762.257 174.476C763.599 174.552 765.688 174.552 766.898 174.474C768.109 174.395 767.01 174.333 764.458 174.335C761.903 174.335 760.913 174.4 762.257 174.476ZM121.734 177.755L119.215 180.164L121.853 177.864C123.304 176.599 124.491 175.514 124.491 175.454C124.491 175.17 124.074 175.517 121.734 177.755ZM34.3721 182.77C34.2607 183.038 34.2227 187.765 34.2885 193.273L34.4075 203.287L34.5063 193.009C34.5797 185.217 34.7316 182.685 35.1317 182.539C35.5444 182.386 35.5419 182.338 35.119 182.312C34.8203 182.296 34.486 182.502 34.3721 182.77ZM99.3815 182.669C98.8498 182.877 98.7713 182.999 99.1713 182.999C99.5182 182.999 100.184 182.851 100.648 182.669C101.179 182.46 101.258 182.338 100.858 182.338C100.511 182.338 99.8449 182.486 99.3815 182.669ZM176.583 185.078L175.342 186.329L176.714 185.198C177.469 184.576 178.084 184.012 178.084 183.945C178.084 183.647 177.737 183.91 176.583 185.078ZM76.9251 185.265C78.2696 185.344 80.3585 185.341 81.5663 185.265C82.7766 185.187 81.6777 185.124 79.1254 185.124C76.5731 185.126 75.5831 185.189 76.9251 185.265ZM50.4301 187.293C50.8935 187.476 51.5569 187.624 51.9063 187.624C52.3063 187.624 52.2278 187.501 51.6961 187.293C51.2302 187.11 50.5668 186.962 50.2174 186.962C49.8199 186.962 49.8984 187.085 50.4301 187.293ZM103.18 187.499C102.124 187.964 102.088 188.017 102.969 187.82C104.164 187.554 105.509 186.928 104.868 186.937C104.635 186.939 103.876 187.194 103.18 187.499ZM177.228 192.593L174.499 195.194L177.347 192.699C178.912 191.328 180.196 190.158 180.196 190.098C180.196 189.813 179.765 190.176 177.228 192.593ZM71.8459 190.653C72.4839 190.741 73.5297 190.741 74.1677 190.653C74.8058 190.565 74.2817 190.491 73.0055 190.491C71.7294 190.491 71.2078 190.565 71.8459 190.653ZM84.5059 190.653C85.144 190.741 86.1897 190.741 86.8278 190.653C87.4659 190.565 86.9417 190.491 85.6656 190.491C84.3895 190.491 83.8679 190.565 84.5059 190.653ZM143.889 194.133L141.583 196.35L144.008 194.244C146.262 192.285 146.629 191.918 146.315 191.918C146.249 191.918 145.158 192.914 143.889 194.133ZM38.1904 204.635C38.6563 204.818 39.3196 204.966 39.6691 204.966C40.0666 204.966 39.9881 204.843 39.4564 204.635C38.993 204.452 38.3271 204.304 37.9802 204.304C37.5802 204.304 37.6586 204.427 38.1904 204.635ZM34.1822 209.195C34.5291 209.391 35.2912 209.666 35.871 209.81C36.6028 209.988 36.7319 209.958 36.2914 209.71C35.9445 209.514 35.1849 209.236 34.605 209.095C33.8708 208.915 33.7416 208.947 34.1822 209.195ZM77.3327 211.452C77.7379 211.549 78.4038 211.549 78.8089 211.452C79.214 211.354 78.8823 211.276 78.0696 211.276C77.2568 211.276 76.9251 211.354 77.3327 211.452ZM82.3968 211.852C83.2653 211.935 84.6908 211.935 85.5618 211.852C86.4303 211.768 85.7188 211.701 83.9793 211.701C82.2373 211.701 81.5258 211.768 82.3968 211.852ZM99.9132 211.845C100.44 211.937 101.199 211.932 101.602 211.838C102.005 211.741 101.577 211.664 100.648 211.669C99.7183 211.673 99.3891 211.752 99.9132 211.845ZM91.9045 212.242C93.1325 212.321 95.0315 212.319 96.1253 212.24C97.2192 212.161 96.2165 212.097 93.8946 212.099C91.5753 212.099 90.679 212.164 91.9045 212.242ZM70.5799 216.462C70.985 216.559 71.6509 216.559 72.056 216.462C72.4637 216.365 72.1295 216.286 71.3192 216.286C70.5064 216.286 70.1748 216.365 70.5799 216.462ZM117.422 216.462C117.827 216.559 118.493 216.559 118.898 216.462C119.306 216.365 118.972 216.286 118.161 216.286C117.349 216.286 117.017 216.365 117.422 216.462ZM74.5931 216.855C75.1198 216.945 75.8794 216.943 76.282 216.846C76.6845 216.749 76.2566 216.675 75.3274 216.68C74.3981 216.684 74.069 216.763 74.5931 216.855ZM113.839 216.855C114.366 216.945 115.126 216.943 115.528 216.846C115.931 216.749 115.503 216.675 114.574 216.68C113.644 216.684 113.315 216.763 113.839 216.855ZM79.2368 217.239C79.7609 217.332 80.5205 217.329 80.9231 217.232C81.3283 217.135 80.8978 217.061 79.9686 217.063C79.0419 217.068 78.7102 217.147 79.2368 217.239ZM109.826 217.232C110.231 217.329 110.897 217.329 111.302 217.232C111.71 217.135 111.376 217.056 110.565 217.056C109.753 217.056 109.421 217.135 109.826 217.232ZM86.6151 217.628C87.2532 217.718 88.2989 217.718 88.937 217.628C89.575 217.54 89.0534 217.468 87.7773 217.468C86.4986 217.468 85.977 217.54 86.6151 217.628ZM102.863 217.625C103.385 217.715 104.24 217.715 104.762 217.625C105.284 217.533 104.856 217.456 103.813 217.456C102.767 217.456 102.341 217.533 102.863 217.625Z" fill="#89C6C1"/>
<path fill-rule="evenodd" clip-rule="evenodd" d="M91.0512 1.42901C91.5778 1.5215 92.3374 1.51688 92.74 1.42208C93.1426 1.32496 92.7147 1.24866 91.7854 1.25328C90.8562 1.25791 90.527 1.33652 91.0512 1.42901ZM106.666 1.42901C107.19 1.5215 107.95 1.51688 108.355 1.42208C108.758 1.32496 108.327 1.24866 107.4 1.25328C106.471 1.25791 106.142 1.33652 106.666 1.42901ZM99.2574 7.22122C100.815 7.29521 103.473 7.29753 105.165 7.22354C106.858 7.14955 105.585 7.08943 102.336 7.08943C99.0852 7.08711 97.7002 7.14723 99.2574 7.22122ZM112.358 7.58887C112.763 7.68367 113.429 7.68367 113.834 7.58887C114.242 7.49176 113.908 7.41083 113.097 7.41083C112.285 7.41083 111.953 7.49176 112.358 7.58887ZM167.956 13.9938C167.956 14.0609 168.574 14.6251 169.328 15.2471L170.701 16.3778L169.46 15.1268C168.305 13.9591 167.956 13.6955 167.956 13.9938ZM156.747 23.9897L155.509 25.243L156.878 24.11C157.633 23.488 158.251 22.9238 158.251 22.8567C158.251 22.5608 157.901 22.822 156.747 23.9897ZM173.848 26.302C174.881 27.3078 175.785 28.1333 175.851 28.1333C176.17 28.1333 175.833 27.7865 173.969 26.1887L171.967 24.4707L173.848 26.302ZM181.444 26.6881C183.191 28.39 183.571 28.6952 183.571 28.4061C183.571 28.3437 182.669 27.5205 181.566 26.5748L179.563 24.8568L181.444 26.6881ZM21.2841 30.5404L20.0459 31.7936L21.4158 30.6606C22.6944 29.6062 22.9831 29.2894 22.6565 29.2894C22.583 29.2894 21.9652 29.8513 21.2841 30.5404ZM115.733 32.2514C116.141 32.3485 116.804 32.3485 117.212 32.2514C117.617 32.1543 117.285 32.0757 116.473 32.0757C115.66 32.0757 115.328 32.1543 115.733 32.2514ZM127.765 32.2584C128.292 32.3509 129.052 32.3485 129.454 32.2514C129.857 32.1543 129.429 32.0803 128.5 32.0826C127.57 32.0873 127.241 32.1659 127.765 32.2584ZM117.217 38.039C117.741 38.1315 118.501 38.1292 118.903 38.0321C119.308 37.935 118.878 37.861 117.949 37.8633C117.022 37.8679 116.69 37.9465 117.217 38.039ZM125.656 38.039C126.18 38.1315 126.94 38.1292 127.345 38.0321C127.748 37.935 127.317 37.861 126.39 37.8633C125.461 37.8679 125.132 37.9465 125.656 38.039ZM181.647 41.3317L180.406 42.5849L181.778 41.4519C182.533 40.8299 183.148 40.2657 183.148 40.1987C183.148 39.9027 182.801 40.164 181.647 41.3317ZM298.671 44.6058C300.588 44.6775 303.72 44.6775 305.634 44.6058C307.551 44.5342 305.984 44.4763 302.153 44.4763C298.324 44.4763 296.757 44.5342 298.671 44.6058ZM440.676 44.6035C442.241 44.6775 444.806 44.6775 446.373 44.6035C447.938 44.5295 446.657 44.4694 443.525 44.4694C440.39 44.4694 439.109 44.5295 440.676 44.6035ZM759.077 44.6058C760.991 44.6775 764.123 44.6775 766.04 44.6058C767.954 44.5342 766.387 44.4763 762.558 44.4763C758.727 44.4763 757.16 44.5342 759.077 44.6058ZM525.165 45.1862C525.056 45.4498 525.015 74.1935 525.073 109.062L525.185 172.455L525.289 108.776L525.393 45.096L551.452 44.992L577.509 44.8902L551.437 44.7978C530.892 44.7238 525.324 44.8047 525.165 45.1862ZM629.904 44.9897C629.798 45.1515 641.462 45.2348 655.829 45.1793L681.952 45.0775L682.061 108.477L682.17 171.877L682.167 108.387V44.8972L656.135 44.7978C641.817 44.7423 630.013 44.8301 629.904 44.9897ZM79.1001 49.0384L77.8594 50.2917L79.2317 49.1587C80.5104 48.1043 80.7965 47.7875 80.4699 47.7875C80.3964 47.7875 79.7812 48.3494 79.1001 49.0384ZM87.8811 54.9902C88.2887 55.085 88.9521 55.085 89.3598 54.9902C89.7649 54.8931 89.4332 54.8121 88.6204 54.8121C87.8076 54.8121 87.476 54.8931 87.8811 54.9902ZM101.179 54.9971C101.706 55.0873 102.465 55.085 102.868 54.9879C103.271 54.8908 102.843 54.8168 101.913 54.8214C100.984 54.826 100.655 54.9046 101.179 54.9971ZM391.391 62.142L389.297 64.1652L391.512 62.253C392.73 61.2009 393.728 60.2899 393.728 60.2298C393.728 59.9431 393.338 60.2621 391.391 62.142ZM493.742 61.009C493.742 61.0761 494.36 61.6402 495.115 62.2622L496.485 63.3953L495.246 62.142C494.092 60.9743 493.742 60.713 493.742 61.009ZM7.32765 66.8636C7.33018 68.9817 7.40108 69.8002 7.48464 68.6811C7.57073 67.5596 7.57073 65.8254 7.48464 64.8265C7.39602 63.8276 7.32765 64.7433 7.32765 66.8636ZM74.2715 70.7159C75.059 71.4581 75.7983 72.0662 75.9148 72.0662C76.0313 72.0662 75.4818 71.4581 74.6944 70.7159C73.9069 69.9736 73.1675 69.3678 73.0511 69.3678C72.9346 69.3678 73.4841 69.9736 74.2715 70.7159ZM299.532 69.6545C300.993 69.7285 303.272 69.7285 304.596 69.6522C305.923 69.5759 304.728 69.5135 301.942 69.5158C299.157 69.5158 298.074 69.5782 299.532 69.6545ZM759.938 69.6545C761.396 69.7285 763.675 69.7285 765.002 69.6522C766.326 69.5759 765.131 69.5135 762.346 69.5158C759.561 69.5158 758.477 69.5782 759.938 69.6545ZM781.548 74.1126C781.548 74.1796 782.164 74.7438 782.918 75.3658L784.291 76.4965L783.05 75.2456C781.895 74.0779 781.548 73.8143 781.548 74.1126ZM45.7864 76.6908C46.9309 77.7498 47.9614 78.6169 48.0753 78.6169C48.1918 78.6169 47.3512 77.7498 46.2092 76.6908C45.0673 75.6294 44.0368 74.7623 43.9203 74.7623C43.8038 74.7623 44.6444 75.6294 45.7864 76.6908ZM701.474 81.5072C701.479 82.3558 701.565 82.6564 701.666 82.1777C701.767 81.6968 701.762 81.0031 701.658 80.6355C701.552 80.2678 701.469 80.6586 701.474 81.5072ZM241.101 83.4333C241.103 84.9178 241.179 85.4773 241.27 84.6773C241.362 83.8773 241.362 82.6633 241.268 81.9812C241.174 81.2968 241.101 81.9511 241.101 83.4333ZM701.474 85.3617C701.479 86.208 701.565 86.5109 701.666 86.03C701.767 85.5513 701.762 84.8577 701.658 84.49C701.552 84.12 701.469 84.5131 701.474 85.3617ZM787.205 85.9398L787.245 86.9017L806.129 86.9086L825.013 86.9156L806.264 86.8092L787.511 86.7028L787.337 85.8381C787.187 85.0958 787.17 85.1097 787.205 85.9398ZM336.441 86.9988C341.72 87.0589 350.362 87.0589 355.641 86.9988C360.923 86.9364 356.604 86.8878 346.043 86.8878C335.481 86.8878 331.162 86.9364 336.441 86.9988ZM559.152 90.3701C559.152 92.243 559.235 93.6974 559.339 93.6049C559.643 93.3275 559.722 87.4867 559.425 87.2162C559.276 87.0797 559.152 88.4995 559.152 90.3701ZM647.899 94.0327C647.899 95.1981 647.98 95.6744 648.076 95.0917C648.172 94.509 648.172 93.5541 648.076 92.9714C647.98 92.3887 647.899 92.8673 647.899 94.0327ZM22.9983 103.282C24.1427 104.341 25.1733 105.208 25.2872 105.208C25.4037 105.208 24.5631 104.341 23.4211 103.282C22.2792 102.22 21.2487 101.353 21.1322 101.353C21.0157 101.353 21.8563 102.22 22.9983 103.282ZM372.305 105.208C372.305 105.95 372.391 106.253 372.497 105.883C372.603 105.511 372.603 104.905 372.497 104.533C372.391 104.163 372.305 104.466 372.305 105.208ZM514.166 109.254C514.166 112.221 514.231 113.384 514.312 111.839C514.393 110.293 514.391 107.865 514.31 106.443C514.229 105.023 514.163 106.288 514.166 109.254ZM179.35 108.098C180.611 109.264 181.738 110.219 181.854 110.219C181.971 110.219 181.034 109.264 179.773 108.098C178.512 106.933 177.385 105.978 177.269 105.978C177.155 105.978 178.089 106.933 179.35 108.098ZM559.759 123.32C559.759 129.149 559.818 131.533 559.891 128.619C559.962 125.706 559.962 120.936 559.891 118.022C559.818 115.107 559.759 117.493 559.759 123.32ZM647.557 143.938L647.562 172.455L664.653 172.462L681.744 172.469L664.762 172.363L647.777 172.254L647.666 143.836L647.555 115.421L647.557 143.938ZM145.591 128.522C146.378 129.265 147.118 129.873 147.234 129.873C147.35 129.873 146.801 129.265 146.014 128.522C145.226 127.78 144.487 127.174 144.37 127.174C144.254 127.174 144.803 127.78 145.591 128.522ZM368.507 132.185C368.507 132.925 368.593 133.23 368.699 132.858C368.805 132.488 368.805 131.88 368.699 131.51C368.593 131.14 368.507 131.443 368.507 132.185ZM828.948 134.497C828.948 135.873 829.024 136.437 829.117 135.748C829.211 135.059 829.211 133.933 829.117 133.244C829.024 132.555 828.948 133.119 828.948 134.497ZM327.589 137.579C327.589 138.532 327.67 138.923 327.771 138.447C327.873 137.97 327.873 137.189 327.771 136.712C327.67 136.236 327.589 136.625 327.589 137.579ZM190.42 154.151C190.42 154.891 190.509 155.197 190.615 154.824C190.719 154.454 190.719 153.846 190.615 153.476C190.509 153.106 190.42 153.409 190.42 154.151ZM493.084 157.715L491.843 158.968L493.216 157.835C493.97 157.213 494.585 156.651 494.585 156.584C494.585 156.286 494.239 156.547 493.084 157.715ZM88.3039 157.5C88.709 157.597 89.375 157.597 89.7801 157.5C90.1877 157.402 89.8535 157.324 89.0433 157.324C88.2305 157.324 87.8988 157.402 88.3039 157.5ZM95.9126 157.902C97.0216 157.983 98.7307 157.981 99.7106 157.9C100.691 157.821 99.7815 157.754 97.6926 157.756C95.6037 157.756 94.8036 157.823 95.9126 157.902ZM357.632 159.643L355.538 161.666L357.753 159.754C358.971 158.702 359.969 157.791 359.969 157.731C359.969 157.442 359.576 157.763 357.632 159.643ZM818.263 159.354C817.237 160.307 816.493 161.088 816.609 161.088C816.726 161.088 817.658 160.307 818.683 159.354C819.709 158.399 820.453 157.62 820.336 157.62C820.22 157.62 819.288 158.399 818.263 159.354ZM95.4923 163.685C96.8368 163.761 98.9257 163.761 100.136 163.683C101.346 163.606 100.247 163.544 97.6926 163.544C95.1404 163.544 94.1503 163.609 95.4923 163.685ZM542.694 172.263L525.603 172.469L542.565 172.559C553.523 172.617 559.618 172.513 559.785 172.263C559.929 172.051 559.987 171.919 559.917 171.967C559.846 172.018 552.095 172.15 542.694 172.263ZM596.367 172.552C600.241 172.615 606.698 172.615 610.716 172.552C614.735 172.488 611.564 172.437 603.675 172.437C595.782 172.437 592.493 172.488 596.367 172.552ZM296.985 174.462C297.506 174.555 298.36 174.555 298.884 174.462C299.405 174.37 298.977 174.296 297.934 174.296C296.889 174.296 296.461 174.37 296.985 174.462ZM309.227 174.462C309.751 174.555 310.511 174.552 310.916 174.455C311.318 174.358 310.888 174.284 309.961 174.287C309.032 174.291 308.703 174.37 309.227 174.462ZM757.388 174.462C757.91 174.555 758.765 174.555 759.287 174.462C759.809 174.37 759.381 174.296 758.338 174.296C757.292 174.296 756.866 174.37 757.388 174.462ZM769.63 174.462C770.157 174.555 770.917 174.552 771.319 174.455C771.722 174.358 771.294 174.284 770.365 174.287C769.435 174.291 769.106 174.37 769.63 174.462ZM173.215 188.16L171.121 190.183L173.336 188.271C175.395 186.493 175.747 186.137 175.43 186.137C175.365 186.137 174.367 187.048 173.215 188.16ZM76.5047 191.048C78.0822 191.122 80.5509 191.122 81.9916 191.046C83.4323 190.972 82.1435 190.909 79.1254 190.912C76.1072 190.912 74.9298 190.974 76.5047 191.048ZM87.8811 211.847C88.5191 211.937 89.5649 211.937 90.2029 211.847C90.841 211.759 90.3194 211.687 89.0433 211.687C87.7646 211.687 87.243 211.759 87.8811 211.847Z" fill="#A8D0D0"/>
<path fill-rule="evenodd" clip-rule="evenodd" d="M95.9203 1.05903C97.9636 1.12839 101.192 1.12839 103.096 1.05671C104.998 0.985034 103.326 0.927229 99.3815 0.929541C95.4366 0.929541 93.8795 0.987347 95.9203 1.05903ZM87.038 1.4313C87.676 1.52148 88.7217 1.52148 89.3598 1.4313C89.9979 1.34344 89.4738 1.27175 88.1976 1.27175C86.9215 1.27175 86.3999 1.34344 87.038 1.4313ZM109.826 1.4313C110.464 1.52148 111.51 1.52148 112.148 1.4313C112.786 1.34344 112.262 1.27175 110.986 1.27175C109.71 1.27175 109.188 1.34344 109.826 1.4313ZM109.193 7.59347C109.715 7.68596 110.57 7.68596 111.092 7.59347C111.614 7.50329 111.186 7.42699 110.143 7.42699C109.097 7.42699 108.671 7.50329 109.193 7.59347ZM154.222 17.8229L152.554 19.4623L154.346 17.9385C156.015 16.5211 156.334 16.1858 156.015 16.1858C155.947 16.1858 155.139 16.9234 154.222 17.8229ZM172.177 17.4622C172.177 17.5293 172.795 18.0934 173.549 18.7154L174.919 19.8461L173.681 18.5952C172.526 17.4275 172.177 17.1639 172.177 17.4622ZM150.632 21.4855L149.179 22.9307L150.761 21.6011C152.232 20.3664 152.536 20.0404 152.214 20.0404C152.144 20.0404 151.432 20.6901 150.632 21.4855ZM169.855 22.7365C170.999 23.7978 172.03 24.6649 172.144 24.6649C172.26 24.6649 171.42 23.7978 170.278 22.7365C169.136 21.6774 168.105 20.8103 167.989 20.8103C167.872 20.8103 168.713 21.6774 169.855 22.7365ZM20.679 22.9307C19.6535 23.8833 18.9091 24.6649 19.0256 24.6649C19.1421 24.6649 20.0738 23.8833 21.0993 22.9307C22.1248 21.9757 22.8692 21.1965 22.7527 21.1965C22.6362 21.1965 21.7044 21.9757 20.679 22.9307ZM177.241 22.5445C178.028 23.2868 178.768 23.8926 178.884 23.8926C179.001 23.8926 178.451 23.2868 177.664 22.5445C176.876 21.8023 176.137 21.1965 176.02 21.1965C175.904 21.1965 176.453 21.8023 177.241 22.5445ZM45.7738 25.9158L43.2544 28.3252L45.8928 26.0245C48.3438 23.888 48.7235 23.5088 48.4121 23.5088C48.3463 23.5088 47.1588 24.5909 45.7738 25.9158ZM34.4151 24.7574C34.8431 25.4002 35.0532 26.3343 34.9494 27.139C34.8557 27.8674 34.9317 28.3784 35.114 28.2743C35.785 27.8974 35.4381 25.5089 34.5797 24.6094L33.7113 23.7007L34.4151 24.7574ZM146.834 25.3377L145.381 26.7829L146.963 25.4557C148.434 24.2186 148.738 23.8926 148.416 23.8926C148.346 23.8926 147.634 24.5446 146.834 25.3377ZM154.222 26.6881L152.554 28.3252L154.346 26.8014C156.015 25.384 156.334 25.0487 156.015 25.0487C155.947 25.0487 155.139 25.7863 154.222 26.6881ZM23.8161 28.2281L22.578 29.4813L23.9478 28.3483C25.2265 27.2939 25.5151 26.9771 25.1885 26.9771C25.1151 26.9771 24.4973 27.539 23.8161 28.2281ZM143.244 29.0004L142.003 30.2513L143.375 29.1206C144.13 28.4986 144.748 27.9344 144.748 27.8674C144.748 27.5691 144.398 27.8327 143.244 29.0004ZM177.664 30.2513C179.158 31.6294 180.477 32.7578 180.593 32.7578C180.71 32.7578 179.58 31.6294 178.084 30.2513C176.59 28.8755 175.271 27.7471 175.155 27.7471C175.038 27.7471 176.167 28.8755 177.664 30.2513ZM191.377 35.84C195.783 39.868 199.482 43.163 199.599 43.163C199.715 43.163 196.206 39.868 191.8 35.84C187.394 31.8121 183.695 28.5171 183.579 28.5171C183.462 28.5171 186.971 31.8121 191.377 35.84ZM144.854 38.7304C144.859 39.579 144.945 39.8796 145.046 39.4009C145.145 38.92 145.143 38.2263 145.036 37.8586C144.93 37.491 144.849 37.8818 144.854 38.7304ZM120.577 38.0459C121.326 38.1292 122.656 38.1315 123.532 38.0482C124.408 37.965 123.795 37.8956 122.17 37.8933C120.544 37.891 119.828 37.9604 120.577 38.0459ZM74.2716 44.8972C73.2461 45.8498 72.5042 46.6313 72.6207 46.6313C72.7346 46.6313 73.6689 45.8498 74.6944 44.8972C75.7199 43.9422 76.4643 43.163 76.3478 43.163C76.2313 43.163 75.297 43.9422 74.2716 44.8972ZM292.131 44.5942C292.769 44.6821 293.815 44.6821 294.453 44.5942C295.091 44.5064 294.567 44.4347 293.291 44.4347C292.014 44.4347 291.493 44.5064 292.131 44.5942ZM309.855 44.5942C310.493 44.6821 311.539 44.6821 312.177 44.5942C312.815 44.5064 312.291 44.4347 311.015 44.4347C309.739 44.4347 309.217 44.5064 309.855 44.5942ZM435.195 44.5942C435.838 44.6844 436.787 44.6821 437.306 44.5896C437.825 44.4971 437.299 44.4255 436.139 44.4278C434.979 44.4324 434.554 44.5064 435.195 44.5942ZM449.749 44.5896C450.27 44.6821 451.126 44.6821 451.648 44.5896C452.169 44.4994 451.741 44.4231 450.698 44.4231C449.655 44.4231 449.227 44.4994 449.749 44.5896ZM752.534 44.5942C753.172 44.6821 754.218 44.6821 754.856 44.5942C755.494 44.5064 754.973 44.4347 753.696 44.4347C752.418 44.4347 751.896 44.5064 752.534 44.5942ZM770.258 44.5942C770.896 44.6821 771.942 44.6821 772.58 44.5942C773.218 44.5064 772.697 44.4347 771.421 44.4347C770.142 44.4347 769.62 44.5064 770.258 44.5942ZM287.705 44.9758C288.229 45.0683 288.989 45.066 289.394 44.9688C289.796 44.8717 289.366 44.7977 288.439 44.8C287.51 44.8047 287.181 44.8833 287.705 44.9758ZM315.134 44.9758C315.661 45.0683 316.421 45.066 316.823 44.9688C317.226 44.8717 316.798 44.7977 315.869 44.8C314.939 44.8047 314.61 44.8833 315.134 44.9758ZM431.187 44.9758C431.711 45.0683 432.47 45.066 432.873 44.9688C433.278 44.8717 432.848 44.7977 431.918 44.8C430.992 44.8047 430.66 44.8833 431.187 44.9758ZM454.18 44.9688C454.585 45.066 455.251 45.066 455.656 44.9688C456.064 44.8717 455.729 44.7931 454.919 44.7931C454.106 44.7931 453.775 44.8717 454.18 44.9688ZM748.108 44.9758C748.635 45.0683 749.395 45.066 749.797 44.9688C750.2 44.8717 749.772 44.7977 748.843 44.8C747.913 44.8047 747.584 44.8833 748.108 44.9758ZM775.112 44.9758C775.634 45.0683 776.49 45.0683 777.011 44.9758C777.533 44.8833 777.105 44.8093 776.062 44.8093C775.016 44.8093 774.591 44.8833 775.112 44.9758ZM178.621 47.4013C178.621 48.354 178.704 48.7448 178.806 48.2684C178.904 47.7921 178.904 47.0106 178.806 46.5342C178.704 46.0579 178.621 46.4464 178.621 47.4013ZM34.7342 49.5217C34.7367 50.7934 34.8152 51.2674 34.9089 50.5738C35.0051 49.8801 35.0026 48.8396 34.9064 48.2615C34.8101 47.6834 34.7316 48.2499 34.7342 49.5217ZM77.3252 52.412C77.3252 53.1519 77.4112 53.4571 77.5176 53.0849C77.6239 52.7149 77.6239 52.1068 77.5176 51.7368C77.4112 51.3669 77.3252 51.6698 77.3252 52.412ZM92.9578 54.6225C94.0694 54.7011 95.7785 54.7011 96.7558 54.6202C97.7357 54.5393 96.8293 54.4745 94.7403 54.4745C92.6514 54.4768 91.8488 54.5416 92.9578 54.6225ZM103.919 54.9902C104.324 55.085 104.99 55.085 105.395 54.9902C105.8 54.8931 105.468 54.8121 104.656 54.8121C103.843 54.8121 103.511 54.8931 103.919 54.9902ZM80.5028 55.7671C81.027 55.8596 81.7866 55.855 82.1892 55.7602C82.5943 55.663 82.1638 55.5867 81.2346 55.5914C80.3079 55.596 79.9762 55.6746 80.5028 55.7671ZM111.935 55.7602C112.343 55.8573 113.006 55.8573 113.414 55.7602C113.819 55.663 113.487 55.5844 112.675 55.5844C111.862 55.5844 111.53 55.663 111.935 55.7602ZM352.583 58.5765C353.725 59.6378 354.755 60.5049 354.872 60.5049C354.988 60.5049 354.148 59.6378 353.006 58.5765C351.861 57.5175 350.831 56.6504 350.717 56.6504C350.6 56.6504 351.441 57.5175 352.583 58.5765ZM711.685 58.6736L710.019 60.3107L711.812 58.7892C712.799 57.9499 713.605 57.2122 713.605 57.1498C713.605 56.8585 713.237 57.1498 711.685 58.6736ZM812.986 58.5765C813.893 59.4251 814.731 60.1188 814.847 60.1188C814.961 60.1188 814.315 59.4251 813.409 58.5765C812.503 57.7302 811.667 57.0365 811.55 57.0365C811.434 57.0365 812.08 57.7302 812.986 58.5765ZM250.854 59.0597L249.613 60.3107L250.986 59.18C251.74 58.558 252.358 57.9938 252.358 57.9267C252.358 57.6284 252.009 57.8921 250.854 59.0597ZM492.054 59.5407C492.841 60.2829 493.58 60.8887 493.697 60.8887C493.813 60.8887 493.264 60.2829 492.476 59.5407C491.689 58.7985 490.95 58.1926 490.833 58.1926C490.717 58.1926 491.266 58.7985 492.054 59.5407ZM92.9451 60.787C94.0491 60.8679 95.8519 60.8679 96.9559 60.787C98.0573 60.7084 97.1559 60.6436 94.9505 60.6436C92.7451 60.6436 91.8437 60.7084 92.9451 60.787ZM103.291 61.1616C103.815 61.2541 104.575 61.2518 104.977 61.1547C105.382 61.0575 104.952 60.9835 104.023 60.9859C103.096 60.9905 102.764 61.0691 103.291 61.1616ZM107.509 61.5477C108.036 61.6402 108.796 61.6356 109.198 61.5408C109.601 61.4437 109.173 61.3674 108.244 61.372C107.314 61.3766 106.985 61.4552 107.509 61.5477ZM496.274 63.3212C496.274 63.3883 496.892 63.9525 497.647 64.5745L499.017 65.7075L497.778 64.4542C496.624 63.2866 496.274 63.0253 496.274 63.3212ZM147.806 69.2476C148.211 69.3447 148.877 69.3447 149.282 69.2476C149.69 69.1504 149.356 69.0718 148.546 69.0718C147.733 69.0718 147.401 69.1504 147.806 69.2476ZM442.786 74.6444C443.191 74.7392 443.857 74.7392 444.262 74.6444C444.669 74.5473 444.335 74.4663 443.525 74.4663C442.712 74.4663 442.381 74.5473 442.786 74.6444ZM742.011 81.121C742.014 82.3928 742.092 82.8668 742.186 82.1754C742.28 81.4817 742.277 80.4412 742.181 79.8631C742.085 79.2828 742.009 79.8493 742.011 81.121ZM281.595 81.121C281.6 82.1823 281.681 82.5685 281.778 81.9835C281.876 81.3985 281.874 80.5314 281.772 80.0574C281.671 79.5834 281.593 80.062 281.595 81.121ZM423.246 81.6043L421.79 83.0494L423.373 81.7199C424.244 80.9892 424.955 80.3395 424.955 80.2747C424.955 79.9811 424.598 80.2585 423.246 81.6043ZM462.935 81.5072C463.723 82.2494 464.462 82.8552 464.579 82.8552C464.695 82.8552 464.146 82.2494 463.358 81.5072C462.571 80.7649 461.831 80.1591 461.715 80.1591C461.599 80.1591 462.148 80.7649 462.935 81.5072ZM42.2011 81.8193C42.2011 81.8864 42.8164 82.4506 43.5709 83.0726L44.9433 84.2056L43.7026 82.9523C42.548 81.7846 42.2011 81.5233 42.2011 81.8193ZM825.112 83.2414C825.112 83.9836 825.198 84.2865 825.304 83.9165C825.411 83.5443 825.411 82.9384 825.304 82.5662C825.198 82.1962 825.112 82.4991 825.112 83.2414ZM66.2552 88.4439C66.835 88.7468 67.4984 88.9943 67.7314 88.9943C67.9643 88.9943 67.6782 88.7468 67.0984 88.4439C66.5185 88.141 65.8526 87.8936 65.6222 87.8936C65.3893 87.8936 65.6754 88.141 66.2552 88.4439ZM647.679 88.5411C647.598 88.6983 647.653 89.6093 647.8 90.5643L648.069 92.2985L648.132 90.2752C648.19 88.4046 648.038 87.8242 647.679 88.5411ZM12.8703 90.1781C13.2323 90.814 13.6197 91.3343 13.7362 91.3343C13.8527 91.3343 13.6527 90.814 13.2931 90.1781C12.9336 89.5423 12.5436 89.022 12.4272 89.022C12.3107 89.022 12.5107 89.5423 12.8703 90.1781ZM5.90723 91.0961C5.90723 91.51 7.1631 93.6465 7.40618 93.6465C7.52265 93.6465 7.3049 93.0823 6.92004 92.3933C6.13764 90.9874 5.90723 90.6938 5.90723 91.0961ZM647.534 106.364C647.534 111.557 647.592 113.682 647.666 111.086C647.739 108.489 647.739 104.239 647.666 101.642C647.592 99.0456 647.534 101.171 647.534 106.364ZM20.679 100.775C21.4664 101.517 22.2058 102.126 22.3197 102.126C22.4362 102.126 21.8868 101.517 21.0993 100.775C20.3118 100.033 19.5725 99.4272 19.4586 99.4272C19.3421 99.4272 19.8915 100.033 20.679 100.775ZM514.105 102.704C514.11 103.55 514.196 103.853 514.297 103.372C514.399 102.893 514.394 102.2 514.29 101.832C514.183 101.462 514.1 101.855 514.105 102.704ZM414.118 105.978C414.118 107.356 414.197 107.92 414.29 107.231C414.384 106.542 414.384 105.416 414.29 104.727C414.197 104.038 414.118 104.6 414.118 105.978ZM559.737 108.484C559.737 111.028 559.805 112.017 559.889 110.683C559.97 109.351 559.97 107.27 559.886 106.059C559.803 104.849 559.734 105.941 559.737 108.484ZM16.0353 105.314C16.0353 105.372 17.5089 106.715 19.3066 108.302L22.578 111.18L19.4231 108.195C16.4936 105.421 16.0353 105.032 16.0353 105.314ZM248.98 105.714C248.98 105.781 249.598 106.343 250.353 106.965L251.725 108.098L250.484 106.845C249.33 105.677 248.98 105.416 248.98 105.714ZM711.706 107.906C713.086 109.178 714.306 110.218 714.422 110.218C714.539 110.218 713.506 109.178 712.128 107.906C710.751 106.634 709.528 105.594 709.412 105.594C709.295 105.594 710.328 106.634 711.706 107.906ZM174.286 111.953C175.782 113.328 177.102 114.457 177.216 114.457C177.332 114.457 176.205 113.328 174.709 111.953C173.212 110.575 171.896 109.446 171.779 109.446C171.663 109.446 172.792 110.575 174.286 111.953ZM414.116 112.337C414.118 113.608 414.197 114.082 414.29 113.391C414.384 112.697 414.382 111.657 414.285 111.079C414.189 110.498 414.113 111.065 414.116 112.337ZM514.105 115.805C514.11 116.654 514.196 116.954 514.297 116.475C514.399 115.997 514.394 115.303 514.29 114.933C514.183 114.566 514.1 114.959 514.105 115.805ZM637.27 117.969C637.011 118.649 636.872 119.273 636.961 119.357C637.052 119.44 637.338 118.95 637.599 118.267C637.857 117.588 637.996 116.961 637.908 116.88C637.816 116.797 637.53 117.287 637.27 117.969ZM150.232 124.284C151.019 125.026 151.759 125.632 151.875 125.632C151.992 125.632 151.442 125.026 150.655 124.284C149.867 123.542 149.128 122.936 149.011 122.936C148.895 122.936 149.444 123.542 150.232 124.284ZM142.216 125.738C142.216 125.796 143.687 127.142 145.484 128.726L148.756 131.607L145.601 128.619C142.671 125.845 142.216 125.456 142.216 125.738ZM828.91 131.029C828.91 131.769 828.996 132.074 829.102 131.702C829.209 131.332 829.209 130.724 829.102 130.354C828.996 129.984 828.91 130.287 828.91 131.029ZM647.127 151.261C647.127 162.707 647.18 167.334 647.246 161.541C647.311 155.751 647.311 146.387 647.246 140.731C647.18 135.078 647.127 139.815 647.127 151.261ZM238.969 132.955C238.969 133.908 239.05 134.298 239.151 133.822C239.252 133.346 239.252 132.564 239.151 132.088C239.05 131.612 238.969 132 238.969 132.955ZM699.365 133.533C699.37 134.382 699.456 134.682 699.557 134.204C699.656 133.723 699.653 133.029 699.547 132.661C699.441 132.294 699.36 132.684 699.365 133.533ZM462.935 136.615C461.91 137.57 461.168 138.349 461.285 138.349C461.398 138.349 462.333 137.57 463.358 136.615C464.384 135.663 465.128 134.881 465.012 134.881C464.895 134.881 463.961 135.663 462.935 136.615ZM196.75 140.278C196.75 141.018 196.839 141.323 196.945 140.951C197.049 140.581 197.049 139.973 196.945 139.603C196.839 139.233 196.75 139.536 196.75 140.278ZM114.363 140.084C114.943 140.387 115.607 140.636 115.84 140.636C116.073 140.636 115.786 140.387 115.207 140.084C114.627 139.781 113.961 139.533 113.73 139.533C113.497 139.533 113.784 139.781 114.363 140.084ZM197.246 148.371C197.246 151.867 197.31 153.298 197.388 151.55C197.467 149.8 197.467 146.939 197.388 145.191C197.31 143.441 197.246 144.872 197.246 148.371ZM30.807 143.552C31.3869 143.855 32.0503 144.105 32.2832 144.105C32.5161 144.105 32.23 143.855 31.6502 143.552C31.0704 143.249 30.4044 143.002 30.174 143.002C29.9411 143.002 30.2272 143.249 30.807 143.552ZM441.532 143.645C442.641 143.723 444.35 143.723 445.33 143.642C446.31 143.561 445.401 143.497 443.312 143.497C441.223 143.499 440.423 143.564 441.532 143.645ZM190.486 148.371C190.486 151.021 190.554 152.103 190.635 150.778C190.719 149.453 190.719 147.286 190.635 145.961C190.554 144.636 190.486 145.721 190.486 148.371ZM303.315 149.423C304.3 149.504 305.915 149.504 306.9 149.423C307.888 149.342 307.08 149.275 305.108 149.275C303.135 149.275 302.327 149.342 303.315 149.423ZM763.728 149.423C764.721 149.504 766.24 149.504 767.106 149.421C767.969 149.337 767.157 149.273 765.301 149.273C763.445 149.275 762.736 149.342 763.728 149.423ZM825.307 150.493C824.922 151.233 824.692 151.839 824.798 151.839C825.087 151.839 826.368 149.478 826.175 149.303C826.084 149.219 825.694 149.756 825.307 150.493ZM34.7038 163.849C34.8 174.483 34.9064 176.268 35.4482 176.405C35.9293 176.523 35.9521 176.479 35.5419 176.213C35.119 175.94 35.0279 173.225 35.119 163.659C35.1849 156.945 35.0912 151.453 34.914 151.453C34.7367 151.453 34.643 157.032 34.7038 163.849ZM165.1 152.995C165.1 153.735 165.189 154.04 165.295 153.668C165.399 153.298 165.399 152.69 165.295 152.32C165.189 151.95 165.1 152.253 165.1 152.995ZM391.406 156.464C392.551 157.523 393.581 158.39 393.695 158.39C393.811 158.39 392.971 157.523 391.829 156.464C390.687 155.402 389.656 154.535 389.54 154.535C389.424 154.535 390.264 155.402 391.406 156.464ZM165.591 160.316C165.591 163.178 165.657 164.348 165.738 162.917C165.819 161.488 165.819 159.146 165.738 157.715C165.657 156.286 165.591 157.456 165.591 160.316ZM158.836 160.316C158.836 162.966 158.904 164.05 158.985 162.725C159.069 161.4 159.069 159.234 158.985 157.909C158.904 156.584 158.836 157.668 158.836 160.316ZM196.75 156.848C196.75 157.59 196.839 157.893 196.945 157.523C197.049 157.153 197.049 156.545 196.945 156.175C196.839 155.802 196.75 156.105 196.75 156.848ZM91.0461 157.507C91.5703 157.597 92.4236 157.597 92.9451 157.507C93.4693 157.414 93.0414 157.338 91.9956 157.338C90.9525 157.338 90.5245 157.414 91.0461 157.507ZM102.44 157.507C102.964 157.597 103.818 157.597 104.339 157.507C104.863 157.414 104.435 157.338 103.39 157.338C102.347 157.338 101.919 157.414 102.44 157.507ZM711.706 160.702C712.85 161.761 713.881 162.628 713.995 162.628C714.111 162.628 713.27 161.761 712.128 160.702C710.987 159.643 709.956 158.776 709.84 158.776C709.723 158.776 710.564 159.643 711.706 160.702ZM251.512 160.894C252.3 161.636 253.039 162.244 253.156 162.244C253.272 162.244 252.723 161.636 251.935 160.894C251.148 160.152 250.408 159.546 250.292 159.546C250.176 159.546 250.725 160.152 251.512 160.894ZM89.7877 163.678C90.5473 163.766 91.6867 163.763 92.3197 163.676C92.9553 163.588 92.3349 163.516 90.9423 163.518C89.5497 163.521 89.0307 163.592 89.7877 163.678ZM102.863 163.671C103.385 163.763 104.24 163.763 104.762 163.671C105.284 163.581 104.856 163.505 103.813 163.505C102.767 163.505 102.341 163.581 102.863 163.671ZM272.824 171.493C273.288 171.674 273.954 171.824 274.301 171.824C274.701 171.824 274.622 171.701 274.09 171.493C273.627 171.311 272.961 171.16 272.614 171.16C272.214 171.16 272.293 171.283 272.824 171.493ZM302.272 174.86C303.381 174.939 305.09 174.939 306.07 174.858C307.05 174.777 306.141 174.712 304.052 174.712C301.963 174.714 301.163 174.779 302.272 174.86ZM762.675 174.86C763.787 174.939 765.496 174.939 766.473 174.858C767.453 174.777 766.546 174.712 764.458 174.712C762.369 174.714 761.566 174.779 762.675 174.86ZM34.6051 192.859C34.6051 198.464 34.7468 203.127 34.9216 203.227C35.0937 203.324 35.2381 198.739 35.2381 193.037C35.2381 187.335 35.0937 182.669 34.9216 182.669C34.7468 182.669 34.6051 187.254 34.6051 192.859ZM178.084 192.109C176.355 193.7 175.036 195 175.152 195C175.268 195 176.778 193.7 178.507 192.109C180.236 190.521 181.555 189.219 181.439 189.219C181.322 189.219 179.813 190.521 178.084 192.109ZM84.9288 191.027C85.3339 191.124 85.9998 191.124 86.405 191.027C86.8101 190.93 86.4784 190.852 85.6656 190.852C84.8528 190.852 84.5211 190.93 84.9288 191.027ZM143.249 194.327L141.583 195.964L143.375 194.44C145.044 193.023 145.363 192.688 145.044 192.688C144.975 192.688 144.168 193.425 143.249 194.327ZM123.646 205.983C123.066 206.286 122.782 206.536 123.013 206.536C123.246 206.536 123.912 206.286 124.491 205.983C125.071 205.68 125.355 205.433 125.124 205.433C124.892 205.433 124.228 205.68 123.646 205.983ZM153.187 207.717C152.374 208.124 151.863 208.464 152.047 208.473C152.496 208.494 154.876 207.363 154.876 207.13C154.876 206.878 154.85 206.887 153.187 207.717ZM92.5248 211.852C93.3933 211.935 94.8188 211.935 95.6898 211.852C96.5583 211.768 95.8468 211.701 94.1073 211.701C92.3653 211.701 91.6538 211.768 92.5248 211.852Z" fill="#C6DCDC"/>
</svg>
